<svg width="500" height="500" viewBox="0 0 500 500" fill="none" xmlns="http://www.w3.org/2000/svg">
<path fill-rule="evenodd" clip-rule="evenodd" d="M250 500C388.071 500 500 388.071 500 250C500 111.929 388.071 0 250 0C111.929 0 0 111.929 0 250C0 388.071 111.929 500 250 500ZM254.386 377.193C322.21 377.193 377.193 322.21 377.193 254.386C377.193 186.562 322.21 131.579 254.386 131.579C186.562 131.579 131.579 186.562 131.579 254.386C131.579 322.21 186.562 377.193 254.386 377.193Z" fill="#E51B23"/>
<path d="M451.754 434.211L434.21 412.281L500 260.505V473.684L486.842 464.912L469.298 451.754L451.754 434.211Z" fill="#E51B23"/>
</svg>
