<svg width="1813" height="396" viewBox="0 0 1813 396" fill="none" xmlns="http://www.w3.org/2000/svg">
<path fill-rule="evenodd" clip-rule="evenodd" d="M198 396C307.352 396 396 307.352 396 198C396 88.6476 307.352 0 198 0C88.6476 0 0 88.6476 0 198C0 307.352 88.6476 396 198 396ZM201.474 298.737C255.191 298.737 298.737 255.191 298.737 201.474C298.737 147.757 255.191 104.211 201.474 104.211C147.757 104.211 104.211 147.757 104.211 201.474C104.211 255.191 147.757 298.737 201.474 298.737Z" fill="#046FE9"/>
<path d="M357.79 343.895L343.895 326.526L396 206.32V375.158L385.579 368.21L371.684 357.789L357.79 343.895Z" fill="#046FE9"/>
<path d="M488.75 289.25C510.25 289.25 531.25 281.25 547.25 267C563.25 252.5 573.5 233 576 211.75C577.5 198.75 576.25 186.25 572.5 174.25C568.75 162.5 562.75 152 554.75 143C546.75 133.75 536.75 126.5 525.5 121.5C513.75 116.5 501.25 113.75 488 113.75H451.75C445 113.75 439.25 119.5 439.25 126.5V276.75C439.25 283.5 445 289.25 451.75 289.25H488.75ZM464.25 264.25V138.75H488C507 138.75 524.25 146.25 536.25 159.5C548 172.75 553.25 190.25 551 209C547.25 240.5 520.5 264.25 488.75 264.25H464.25ZM795.67 288.75C796.42 288.75 797.42 288.5 798.17 288.5C804.92 287 809.17 280.5 807.92 273.75L777.42 123.75C776.42 118 771.42 113.75 765.67 113.5C760.17 113.25 754.92 116.75 753.17 122.25L711.17 236.25L670.67 122.5C668.92 117 663.67 113.25 657.92 113.75C652.17 114 647.17 118.25 646.17 124L620.92 274.25C619.67 281.25 624.17 287.5 631.17 288.75C637.92 290 644.42 285.25 645.42 278.5L664.17 178L698.92 279.75C700.67 284.75 705.42 288.5 710.92 288.5C716.42 288.5 721.17 285 722.92 279.75L762.17 174.25L783.42 278.5C784.67 284.5 789.92 288.75 795.67 288.75ZM872.686 289.25C879.436 289.25 884.936 283.75 884.936 276.75V125.75C884.936 119 879.436 113.5 872.686 113.5C865.686 113.5 860.186 119 860.186 125.75V276.75C860.186 283.75 865.686 289.25 872.686 289.25ZM1067.46 275.25V125.25C1067.46 118.25 1061.96 112.75 1055.21 112.75C1048.46 112.75 1042.71 118.25 1042.71 125.25V239.5L961.213 118.5C957.463 112.5 949.713 111 943.963 114.75C939.713 117.5 937.713 122.25 938.213 127V277.25C938.213 284 943.963 289.5 950.713 289.5C957.463 289.5 962.963 284 962.963 277.25V166.25L1044.71 283.75C1047.21 287.5 1051.21 289.5 1055.21 289.5C1057.46 289.5 1059.96 289 1061.96 287.5C1066.21 284.75 1068.21 280 1067.46 275.25ZM1132.74 289.25C1139.49 289.25 1144.99 283.75 1144.99 276.75V125.75C1144.99 119 1139.49 113.5 1132.74 113.5C1125.74 113.5 1120.24 119 1120.24 125.75V276.75C1120.24 283.75 1125.74 289.25 1132.74 289.25ZM1247.43 189C1233.68 189 1222.43 177.75 1222.43 164C1222.43 150.25 1233.68 139 1247.43 139C1261.18 139 1272.43 150.25 1272.43 164C1272.43 171 1278.18 176.5 1284.93 176.5C1291.93 176.5 1297.43 171 1297.43 164C1297.43 136.5 1274.93 114 1247.43 114C1219.93 114 1197.43 136.5 1197.43 164C1197.43 191.75 1219.93 214 1247.43 214C1261.18 214 1272.43 225.25 1272.43 239C1272.43 253 1261.18 264.25 1247.43 264.25C1233.68 264.25 1222.43 253 1222.43 239C1222.43 232.25 1216.93 226.5 1209.93 226.5C1202.93 226.5 1197.43 232.25 1197.43 239C1197.43 266.75 1219.93 289.25 1247.43 289.25C1274.93 289.25 1297.43 266.75 1297.43 239C1297.43 211.5 1274.93 189 1247.43 189ZM1338.12 126.25C1338.12 133 1343.62 138.5 1350.62 138.5H1388.37V276.75C1388.37 283.75 1393.87 289.25 1400.87 289.25C1407.62 289.25 1413.12 283.75 1413.12 276.75V138.5H1451.12C1457.87 138.5 1463.37 133 1463.37 126.25C1463.37 119.25 1457.87 113.75 1451.12 113.75H1350.62C1343.62 113.75 1338.12 119.25 1338.12 126.25ZM1624.62 164.25C1624.37 136.25 1600.12 114.75 1574.87 114.75H1522.37C1522.12 114.75 1522.12 114.75 1521.87 114.75C1514.87 114.75 1509.12 120.5 1509.12 127.25V276.75C1509.12 283.75 1514.62 289 1521.62 289C1528.37 289 1534.12 283.75 1534.12 276.75V215H1559.62L1601.12 283C1603.62 286.75 1607.62 289 1611.87 289C1614.12 289 1616.37 288.5 1618.37 287.25C1624.37 283.5 1626.12 275.75 1622.62 270L1587.62 213C1609.62 205 1624.62 186.5 1624.62 164.25ZM1573.87 190H1534.12V139.75H1573.87C1588.12 139.75 1599.62 150.5 1599.87 164.5C1599.62 178.75 1588.12 190 1573.87 190ZM1805.19 272.25L1754.44 123.25C1752.94 118.5 1748.69 114.25 1742.69 114.25C1736.44 114.25 1731.94 118.5 1730.44 123.25L1676.94 272.25C1675.44 278.25 1678.44 285.5 1685.94 288.75C1687.19 288.75 1687.19 288.75 1688.69 288.75C1694.69 288.75 1699.44 285.5 1700.69 279.75L1711.19 254.25H1772.19L1781.19 279.75C1784.19 287.25 1791.94 290 1797.69 288.75C1805.19 285.5 1807.94 278.25 1805.19 272.25ZM1720.19 229L1742.69 165L1764.69 229H1720.19Z" fill="white"/>
</svg>
